<svg id="visual" viewBox="0 0 900 600" width="900" height="600" xmlns="http://www.w3.org/2000/svg" xmlns:xlink="http://www.w3.org/1999/xlink" version="1.1"><g stroke-width="1" stroke-linejoin="bevel"><path d="M451 341.9L539 257.1L449 258.1Z" fill="#f8eaff" stroke="#f8eaff"></path><path d="M451 341.9L540 340.9L539 257.1Z" fill="#bf6dfe" stroke="#bf6dfe"></path><path d="M539 257.1L451 171.4L449 258.1Z" fill="#f8eaff" stroke="#f8eaff"></path><path d="M628 256.1L540 171.4L539 257.1Z" fill="#9810fa" stroke="#9810fa"></path><path d="M539 257.1L540 171.4L451 171.4Z" fill="#f0d6ff" stroke="#f0d6ff"></path><path d="M451 341.9L541 427.6L540 340.9Z" fill="#9810fa" stroke="#9810fa"></path><path d="M540 340.9L628 256.1L539 257.1Z" fill="#cb83fe" stroke="#cb83fe"></path><path d="M360 341.9L450 429.6L451 341.9Z" fill="#d598ff" stroke="#d598ff"></path><path d="M451 341.9L450 429.6L541 427.6Z" fill="#ffffff" stroke="#ffffff"></path><path d="M541 427.6L628 340.9L540 340.9Z" fill="#cb83fe" stroke="#cb83fe"></path><path d="M628 340.9L628 256.1L540 340.9Z" fill="#e8c1ff" stroke="#e8c1ff"></path><path d="M359 256.1L360 341.9L449 258.1Z" fill="#9810fa" stroke="#9810fa"></path><path d="M449 258.1L360 341.9L451 341.9Z" fill="#ffffff" stroke="#ffffff"></path><path d="M451 171.4L359 256.1L449 258.1Z" fill="#e8c1ff" stroke="#e8c1ff"></path><path d="M628 256.1L628 171.4L540 171.4Z" fill="#a63bfb" stroke="#a63bfb"></path><path d="M361 86.7L359 170.4L451 171.4Z" fill="#9810fa" stroke="#9810fa"></path><path d="M451 171.4L359 170.4L359 256.1Z" fill="#bf6dfe" stroke="#bf6dfe"></path><path d="M538 84.7L451 171.4L540 171.4Z" fill="#d598ff" stroke="#d598ff"></path><path d="M628 512.3L631 427.6L541 427.6Z" fill="#cb83fe" stroke="#cb83fe"></path><path d="M541 427.6L631 427.6L628 340.9Z" fill="#cb83fe" stroke="#cb83fe"></path><path d="M628 340.9L719 256.1L628 256.1Z" fill="#e8c1ff" stroke="#e8c1ff"></path><path d="M628 256.1L718 170.4L628 171.4Z" fill="#dfadff" stroke="#dfadff"></path><path d="M360 341.9L359 429.6L450 429.6Z" fill="#ffffff" stroke="#ffffff"></path><path d="M269 426.6L359 429.6L360 341.9Z" fill="#e8c1ff" stroke="#e8c1ff"></path><path d="M630 85.7L538 84.7L540 171.4Z" fill="#d598ff" stroke="#d598ff"></path><path d="M359 429.6L449 513.3L450 429.6Z" fill="#f0d6ff" stroke="#f0d6ff"></path><path d="M450 429.6L541 514.3L541 427.6Z" fill="#9810fa" stroke="#9810fa"></path><path d="M538 84.7L450 83.7L451 171.4Z" fill="#cb83fe" stroke="#cb83fe"></path><path d="M449 513.3L541 514.3L450 429.6Z" fill="#f0d6ff" stroke="#f0d6ff"></path><path d="M268 257.1L270 341.9L359 256.1Z" fill="#b355fd" stroke="#b355fd"></path><path d="M359 256.1L270 341.9L360 341.9Z" fill="#9810fa" stroke="#9810fa"></path><path d="M719 343.9L719 256.1L628 340.9Z" fill="#cb83fe" stroke="#cb83fe"></path><path d="M628 171.4L630 85.7L540 171.4Z" fill="#9810fa" stroke="#9810fa"></path><path d="M719 428.6L719 343.9L631 427.6Z" fill="#bf6dfe" stroke="#bf6dfe"></path><path d="M631 427.6L719 343.9L628 340.9Z" fill="#e8c1ff" stroke="#e8c1ff"></path><path d="M271 169.4L268 257.1L359 256.1Z" fill="#dfadff" stroke="#dfadff"></path><path d="M450 83.7L361 86.7L451 171.4Z" fill="#e8c1ff" stroke="#e8c1ff"></path><path d="M359 170.4L271 169.4L359 256.1Z" fill="#dfadff" stroke="#dfadff"></path><path d="M541 514.3L628 512.3L541 427.6Z" fill="#b355fd" stroke="#b355fd"></path><path d="M718 170.4L630 85.7L628 171.4Z" fill="#f8eaff" stroke="#f8eaff"></path><path d="M538 84.7L451 0L450 83.7Z" fill="#f0d6ff" stroke="#f0d6ff"></path><path d="M269 426.6L358 513.3L359 429.6Z" fill="#dfadff" stroke="#dfadff"></path><path d="M359 429.6L358 513.3L449 513.3Z" fill="#a63bfb" stroke="#a63bfb"></path><path d="M449 513.3L540 600L541 514.3Z" fill="#dfadff" stroke="#dfadff"></path><path d="M719 256.1L718 170.4L628 256.1Z" fill="#f8eaff" stroke="#f8eaff"></path><path d="M361 86.7L271 169.4L359 170.4Z" fill="#dfadff" stroke="#dfadff"></path><path d="M179 342.9L269 426.6L270 341.9Z" fill="#ffffff" stroke="#ffffff"></path><path d="M270 341.9L269 426.6L360 341.9Z" fill="#e8c1ff" stroke="#e8c1ff"></path><path d="M720 512.3L719 428.6L631 427.6Z" fill="#f0d6ff" stroke="#f0d6ff"></path><path d="M540 0L451 0L538 84.7Z" fill="#e8c1ff" stroke="#e8c1ff"></path><path d="M450 83.7L358 0L361 86.7Z" fill="#cb83fe" stroke="#cb83fe"></path><path d="M361 86.7L268 85.7L271 169.4Z" fill="#cb83fe" stroke="#cb83fe"></path><path d="M630 85.7L540 0L538 84.7Z" fill="#cb83fe" stroke="#cb83fe"></path><path d="M448 600L540 600L449 513.3Z" fill="#b355fd" stroke="#b355fd"></path><path d="M541 514.3L628 600L628 512.3Z" fill="#b355fd" stroke="#b355fd"></path><path d="M628 512.3L720 512.3L631 427.6Z" fill="#f0d6ff" stroke="#f0d6ff"></path><path d="M361 600L448 600L449 513.3Z" fill="#dfadff" stroke="#dfadff"></path><path d="M718 170.4L719 84.7L630 85.7Z" fill="#f0d6ff" stroke="#f0d6ff"></path><path d="M630 85.7L630 0L540 0Z" fill="#bf6dfe" stroke="#bf6dfe"></path><path d="M808 169.4L719 84.7L718 170.4Z" fill="#d598ff" stroke="#d598ff"></path><path d="M719 600L720 512.3L628 512.3Z" fill="#cb83fe" stroke="#cb83fe"></path><path d="M808 427.6L809 341.9L719 343.9Z" fill="#bf6dfe" stroke="#bf6dfe"></path><path d="M719 343.9L809 341.9L719 256.1Z" fill="#9810fa" stroke="#9810fa"></path><path d="M719 256.1L808 169.4L718 170.4Z" fill="#ffffff" stroke="#ffffff"></path><path d="M358 0L268 85.7L361 86.7Z" fill="#cb83fe" stroke="#cb83fe"></path><path d="M178 172.4L181 255.1L268 257.1Z" fill="#bf6dfe" stroke="#bf6dfe"></path><path d="M269 426.6L268 515.3L358 513.3Z" fill="#a63bfb" stroke="#a63bfb"></path><path d="M358 513.3L361 600L449 513.3Z" fill="#b355fd" stroke="#b355fd"></path><path d="M181 512.3L268 515.3L269 426.6Z" fill="#cb83fe" stroke="#cb83fe"></path><path d="M178 172.4L268 257.1L271 169.4Z" fill="#ffffff" stroke="#ffffff"></path><path d="M268 257.1L179 342.9L270 341.9Z" fill="#a63bfb" stroke="#a63bfb"></path><path d="M808 427.6L719 343.9L719 428.6Z" fill="#ffffff" stroke="#ffffff"></path><path d="M809 341.9L810 257.1L719 256.1Z" fill="#a63bfb" stroke="#a63bfb"></path><path d="M181 255.1L179 342.9L268 257.1Z" fill="#f8eaff" stroke="#f8eaff"></path><path d="M719 84.7L630 0L630 85.7Z" fill="#9810fa" stroke="#9810fa"></path><path d="M451 0L358 0L450 83.7Z" fill="#b355fd" stroke="#b355fd"></path><path d="M270 600L361 600L358 513.3Z" fill="#ffffff" stroke="#ffffff"></path><path d="M540 600L628 600L541 514.3Z" fill="#e8c1ff" stroke="#e8c1ff"></path><path d="M720 512.3L808 427.6L719 428.6Z" fill="#f8eaff" stroke="#f8eaff"></path><path d="M809 341.9L900 340.9L810 257.1Z" fill="#dfadff" stroke="#dfadff"></path><path d="M810 257.1L808 169.4L719 256.1Z" fill="#e8c1ff" stroke="#e8c1ff"></path><path d="M180 86.7L178 172.4L271 169.4Z" fill="#d598ff" stroke="#d598ff"></path><path d="M90 256.1L91 341.9L179 342.9Z" fill="#d598ff" stroke="#d598ff"></path><path d="M91 429.6L179 429.6L179 342.9Z" fill="#a63bfb" stroke="#a63bfb"></path><path d="M179 342.9L179 429.6L269 426.6Z" fill="#a63bfb" stroke="#a63bfb"></path><path d="M358 0L269 0L268 85.7Z" fill="#dfadff" stroke="#dfadff"></path><path d="M268 85.7L180 86.7L271 169.4Z" fill="#9810fa" stroke="#9810fa"></path><path d="M811 83.7L721 0L719 84.7Z" fill="#f0d6ff" stroke="#f0d6ff"></path><path d="M719 84.7L721 0L630 0Z" fill="#f8eaff" stroke="#f8eaff"></path><path d="M178 600L270 600L268 515.3Z" fill="#bf6dfe" stroke="#bf6dfe"></path><path d="M268 515.3L270 600L358 513.3Z" fill="#cb83fe" stroke="#cb83fe"></path><path d="M628 600L719 600L628 512.3Z" fill="#dfadff" stroke="#dfadff"></path><path d="M720 512.3L810 515.3L808 427.6Z" fill="#f0d6ff" stroke="#f0d6ff"></path><path d="M179 429.6L181 512.3L269 426.6Z" fill="#bf6dfe" stroke="#bf6dfe"></path><path d="M179 0L180 86.7L268 85.7Z" fill="#e8c1ff" stroke="#e8c1ff"></path><path d="M719 600L810 515.3L720 512.3Z" fill="#e8c1ff" stroke="#e8c1ff"></path><path d="M900 428.6L900 340.9L809 341.9Z" fill="#dfadff" stroke="#dfadff"></path><path d="M808 169.4L811 83.7L719 84.7Z" fill="#bf6dfe" stroke="#bf6dfe"></path><path d="M900 85.7L811 83.7L808 169.4Z" fill="#f8eaff" stroke="#f8eaff"></path><path d="M900 171.4L808 169.4L810 257.1Z" fill="#dfadff" stroke="#dfadff"></path><path d="M90 256.1L179 342.9L181 255.1Z" fill="#b355fd" stroke="#b355fd"></path><path d="M179 429.6L90 512.3L181 512.3Z" fill="#a63bfb" stroke="#a63bfb"></path><path d="M90 256.1L181 255.1L178 172.4Z" fill="#e8c1ff" stroke="#e8c1ff"></path><path d="M90 171.4L90 256.1L178 172.4Z" fill="#b355fd" stroke="#b355fd"></path><path d="M900 428.6L809 341.9L808 427.6Z" fill="#e8c1ff" stroke="#e8c1ff"></path><path d="M900 340.9L900 255.1L810 257.1Z" fill="#e8c1ff" stroke="#e8c1ff"></path><path d="M90 512.3L91 429.6L0 428.6Z" fill="#f0d6ff" stroke="#f0d6ff"></path><path d="M91 341.9L91 429.6L179 342.9Z" fill="#d598ff" stroke="#d598ff"></path><path d="M181 512.3L178 600L268 515.3Z" fill="#f8eaff" stroke="#f8eaff"></path><path d="M91 86.7L90 171.4L178 172.4Z" fill="#dfadff" stroke="#dfadff"></path><path d="M91 86.7L178 172.4L180 86.7Z" fill="#e8c1ff" stroke="#e8c1ff"></path><path d="M900 255.1L900 171.4L810 257.1Z" fill="#ffffff" stroke="#ffffff"></path><path d="M810 515.3L900 428.6L808 427.6Z" fill="#9810fa" stroke="#9810fa"></path><path d="M269 0L179 0L268 85.7Z" fill="#b355fd" stroke="#b355fd"></path><path d="M900 0L811 0L811 83.7Z" fill="#ffffff" stroke="#ffffff"></path><path d="M811 83.7L811 0L721 0Z" fill="#ffffff" stroke="#ffffff"></path><path d="M719 600L810 600L810 515.3Z" fill="#d598ff" stroke="#d598ff"></path><path d="M810 515.3L900 514.3L900 428.6Z" fill="#f8eaff" stroke="#f8eaff"></path><path d="M90 512.3L178 600L181 512.3Z" fill="#f0d6ff" stroke="#f0d6ff"></path><path d="M179 0L91 86.7L180 86.7Z" fill="#f8eaff" stroke="#f8eaff"></path><path d="M0 428.6L91 429.6L91 341.9Z" fill="#9810fa" stroke="#9810fa"></path><path d="M91 429.6L90 512.3L179 429.6Z" fill="#bf6dfe" stroke="#bf6dfe"></path><path d="M900 171.4L900 85.7L808 169.4Z" fill="#9810fa" stroke="#9810fa"></path><path d="M900 600L900 514.3L810 515.3Z" fill="#ffffff" stroke="#ffffff"></path><path d="M0 170.4L0 258.1L90 256.1Z" fill="#cb83fe" stroke="#cb83fe"></path><path d="M90 256.1L0 258.1L91 341.9Z" fill="#a63bfb" stroke="#a63bfb"></path><path d="M0 170.4L90 256.1L90 171.4Z" fill="#f8eaff" stroke="#f8eaff"></path><path d="M0 258.1L0 342.9L91 341.9Z" fill="#cb83fe" stroke="#cb83fe"></path><path d="M179 0L89 0L91 86.7Z" fill="#a63bfb" stroke="#a63bfb"></path><path d="M91 86.7L0 170.4L90 171.4Z" fill="#ffffff" stroke="#ffffff"></path><path d="M900 85.7L900 0L811 83.7Z" fill="#f8eaff" stroke="#f8eaff"></path><path d="M90 512.3L89 600L178 600Z" fill="#e8c1ff" stroke="#e8c1ff"></path><path d="M0 515.3L89 600L90 512.3Z" fill="#e8c1ff" stroke="#e8c1ff"></path><path d="M810 600L900 600L810 515.3Z" fill="#d598ff" stroke="#d598ff"></path><path d="M0 84.7L0 170.4L91 86.7Z" fill="#cb83fe" stroke="#cb83fe"></path><path d="M0 342.9L0 428.6L91 341.9Z" fill="#cb83fe" stroke="#cb83fe"></path><path d="M89 0L0 84.7L91 86.7Z" fill="#a63bfb" stroke="#a63bfb"></path><path d="M0 428.6L0 515.3L90 512.3Z" fill="#cb83fe" stroke="#cb83fe"></path><path d="M89 0L0 0L0 84.7Z" fill="#f0d6ff" stroke="#f0d6ff"></path><path d="M0 515.3L0 600L89 600Z" fill="#9810fa" stroke="#9810fa"></path></g></svg>